<svg fill="none">
      <g id="container" stroke="#c6e2ff">
  <path d="M 317.78,370.16 C 316.71 370.29, 315.77 370.58, 314.70 372.22 C 313.62 373.87, 312.73 375.14, 312.43 378.38 C 312.13 381.63, 312.56 383.67, 313.21 388.46 C 313.86 393.24, 314.39 396.25, 315.68 402.30 C 316.98 408.34, 317.74 411.71, 319.67 418.66 C 321.59 425.62, 322.88 429.50, 325.30 437.05 C 327.73 444.60, 329.13 448.66, 331.78 456.42 C 334.44 464.18, 336.00 468.22, 338.58 475.87 C 341.15 483.52, 342.63 487.44, 344.66 494.66 C 346.70 501.89, 347.64 505.49, 348.76 512.01 C 349.89 518.54, 350.31 521.66, 350.29 527.29 C 350.27 532.91, 350.01 535.63, 348.66 540.12 C 347.31 544.61, 346.31 546.55, 343.53 549.74 C 340.75 552.93, 338.95 554.04, 334.73 556.08 C 330.52 558.12, 327.88 559.01, 322.44 559.94 C 316.99 560.87, 313.75 561.17, 307.50 560.73 C 301.26 560.28, 297.41 559.40, 291.21 557.71 C 285.00 556.03, 281.53 554.75, 276.49 552.31 C 271.45 549.88, 269.11 548.49, 266.02 545.54 C 262.93 542.58, 261.92 540.98, 261.03 537.55 C 260.15 534.13, 260.22 532.39, 261.59 528.42 C 262.97 524.45, 264.92 521.85, 267.91 517.70 C 270.89 513.54, 273.41 511.13, 276.52 507.67 C 279.63 504.21, 282.47 502.30, 283.45 500.41 C 284.43 498.51, 283.42 497.34, 281.41 498.20 C 279.40 499.06, 276.82 501.31, 273.40 504.70 C 269.98 508.09, 267.47 510.65, 264.31 515.14 C 261.16 519.63, 259.04 522.44, 257.60 527.13 C 256.17 531.82, 255.98 534.36, 257.14 538.59 C 258.30 542.82, 259.83 544.91, 263.40 548.29 C 266.96 551.67, 269.58 552.96, 274.97 555.50 C 280.35 558.04, 283.87 559.25, 290.32 560.99 C 296.78 562.72, 300.70 563.66, 307.24 564.18 C 313.79 564.69, 317.20 564.49, 323.03 563.56 C 328.87 562.64, 331.73 561.82, 336.42 559.56 C 341.10 557.30, 343.31 555.95, 346.45 552.26 C 349.59 548.57, 350.71 546.13, 352.12 541.13 C 353.53 536.13, 353.62 533.19, 353.52 527.26 C 353.42 521.34, 352.87 518.17, 351.62 511.50 C 350.36 504.83, 349.36 501.21, 347.25 493.92 C 345.13 486.63, 343.63 482.71, 341.03 475.04 C 338.43 467.38, 336.88 463.34, 334.27 455.58 C 331.66 447.81, 330.28 443.76, 327.97 436.22 C 325.67 428.67, 324.44 424.78, 322.75 417.86 C 321.06 410.94, 320.40 407.55, 319.53 401.60 C 318.67 395.65, 318.39 392.60, 318.43 388.11 C 318.46 383.63, 319.36 381.96, 319.72 379.18 C 320.08 376.40, 320.15 375.73, 320.22 374.21 C 320.28 372.68, 320.54 372.38, 320.05 371.57 C 319.57 370.76, 318.86 370.03, 317.78 370.16" style="stroke: black; fill: black;">
  </path>
  <path d="M 407.43,467.87 C 406.55 466.79, 405.27 465.70, 402.58 465.40 C 399.89 465.10, 397.77 465.27, 393.99 466.37 C 390.20 467.47, 387.54 468.22, 383.65 470.92 C 379.76 473.61, 377.56 475.76, 374.53 479.87 C 371.49 483.97, 369.96 486.64, 368.48 491.44 C 367.00 496.24, 366.46 499.13, 367.13 503.87 C 367.79 508.61, 368.93 511.30, 371.80 515.15 C 374.68 518.99, 376.98 520.72, 381.51 523.11 C 386.03 525.49, 388.96 526.23, 394.43 527.09 C 399.91 527.96, 403.27 527.95, 408.87 527.41 C 414.47 526.88, 417.50 526.22, 422.44 524.43 C 427.37 522.64, 429.88 521.45, 433.55 518.46 C 437.22 515.48, 438.87 513.57, 440.81 509.51 C 442.74 505.44, 443.20 502.75, 443.23 498.13 C 443.25 493.52, 442.77 490.73, 440.95 486.44 C 439.13 482.16, 437.35 480.05, 434.12 476.72 C 430.89 473.40, 428.57 471.91, 424.81 469.82 C 421.05 467.74, 418.63 466.90, 415.33 466.30 C 412.02 465.70, 409.76 466.19, 408.30 466.82 C 406.83 467.45, 406.85 468.52, 407.99 469.46 C 409.13 470.39, 411.12 470.50, 413.99 471.49 C 416.87 472.48, 419.01 472.67, 422.36 474.40 C 425.70 476.12, 427.87 477.32, 430.73 480.10 C 433.59 482.88, 435.07 484.69, 436.64 488.30 C 438.22 491.91, 438.59 494.27, 438.62 498.14 C 438.66 502.01, 438.35 504.23, 436.81 507.65 C 435.26 511.06, 434.05 512.62, 430.90 515.22 C 427.74 517.81, 425.53 518.98, 421.05 520.62 C 416.57 522.27, 413.68 522.95, 408.49 523.45 C 403.29 523.95, 400.07 523.92, 395.07 523.11 C 390.06 522.31, 387.42 521.54, 383.45 519.43 C 379.48 517.33, 377.63 515.82, 375.22 512.59 C 372.82 509.37, 371.93 507.25, 371.42 503.29 C 370.92 499.33, 371.33 496.90, 372.70 492.79 C 374.07 488.68, 375.48 486.19, 378.26 482.73 C 381.03 479.26, 383.09 477.47, 386.56 475.45 C 390.03 473.42, 392.37 473.30, 395.59 472.60 C 398.81 471.89, 400.38 472.30, 402.66 471.94 C 404.95 471.58, 406.06 471.60, 407.02 470.79 C 407.97 469.97, 408.32 468.95, 407.43 467.87" style="stroke: black; fill: black;">
    
  </path>
  <path d="M 468.12,468.79 C 467.24 469.82, 466.57 471.06, 466.54 473.79 C 466.51 476.52, 467.10 478.49, 467.98 482.44 C 468.86 486.39, 469.58 489.26, 470.94 493.55 C 472.30 497.84, 473.11 500.33, 474.77 503.90 C 476.43 507.46, 477.15 509.28, 479.22 511.37 C 481.28 513.46, 482.69 514.03, 485.10 514.35 C 487.50 514.67, 489.06 514.52, 491.24 512.97 C 493.43 511.43, 494.29 509.85, 496.02 506.63 C 497.75 503.41, 498.06 500.95, 499.89 496.85 C 501.73 492.76, 502.82 490.12, 505.21 486.17 C 507.59 482.21, 509.15 479.94, 511.81 477.08 C 514.48 474.22, 515.97 473.07, 518.54 471.88 C 521.10 470.68, 522.14 470.67, 524.62 471.12 C 527.10 471.56, 528.33 472.25, 530.93 474.10 C 533.53 475.95, 534.92 477.44, 537.63 480.36 C 540.34 483.27, 541.72 485.23, 544.49 488.67 C 547.26 492.10, 548.72 494.14, 551.47 497.53 C 554.22 500.91, 555.38 502.89, 558.24 505.59 C 561.10 508.29, 563.83 510.43, 565.76 511.04 C 567.68 511.65, 568.67 510.39, 567.87 508.62 C 567.07 506.85, 564.26 505.03, 561.75 502.19 C 559.24 499.35, 557.98 497.75, 555.31 494.42 C 552.65 491.09, 551.18 489.07, 548.42 485.54 C 545.67 482.02, 544.41 479.97, 541.54 476.78 C 538.67 473.59, 537.30 471.78, 534.08 469.58 C 530.86 467.38, 528.98 466.24, 525.44 465.76 C 521.90 465.29, 519.82 465.61, 516.37 467.20 C 512.93 468.79, 511.30 470.44, 508.22 473.71 C 505.14 476.97, 503.63 479.38, 500.97 483.52 C 498.30 487.65, 497.03 490.37, 494.88 494.38 C 492.72 498.39, 491.67 500.66, 490.19 503.57 C 488.70 506.48, 488.31 507.61, 487.44 508.94 C 486.58 510.27, 486.61 510.48, 485.86 510.22 C 485.12 509.95, 484.86 509.37, 483.71 507.61 C 482.56 505.86, 481.54 504.60, 480.11 501.45 C 478.69 498.29, 477.76 495.89, 476.59 491.84 C 475.41 487.78, 474.94 484.92, 474.23 481.16 C 473.52 477.39, 473.71 475.52, 473.06 473.01 C 472.41 470.51, 471.96 469.48, 470.97 468.64 C 469.98 467.80, 469.01 467.76, 468.12 468.79" style="stroke: black; fill: black;">
    
  </path>
  <path d="M 638.88,481.82 C 640.06 481.00, 641.06 479.54, 641.54 477.16 C 642.01 474.78, 642.27 472.82, 641.25 469.91 C 640.23 467.01, 639.19 464.68, 636.42 462.64 C 633.65 460.60, 631.52 460.03, 627.40 459.71 C 623.28 459.39, 620.59 459.66, 615.81 461.03 C 611.03 462.40, 608.18 463.65, 603.50 466.56 C 598.82 469.46, 596.17 471.67, 592.41 475.56 C 588.64 479.45, 586.69 481.88, 584.67 486.01 C 582.65 490.14, 582.02 492.44, 582.31 496.23 C 582.59 500.02, 583.61 502.26, 586.11 504.95 C 588.60 507.64, 590.83 508.60, 594.79 509.68 C 598.74 510.75, 601.36 510.68, 605.89 510.33 C 610.42 509.97, 612.99 509.44, 617.45 507.90 C 621.90 506.37, 624.20 505.13, 628.15 502.68 C 632.09 500.22, 634.04 498.59, 637.17 495.62 C 640.30 492.66, 642.10 490.79, 643.80 487.85 C 645.50 484.91, 645.67 482.63, 645.67 480.93 C 645.67 479.23, 644.30 478.77, 643.81 479.36 C 643.33 479.94, 642.58 481.48, 643.24 483.86 C 643.91 486.24, 644.86 488.09, 647.12 491.24 C 649.37 494.39, 651.21 496.72, 654.51 499.59 C 657.81 502.46, 659.89 503.86, 663.62 505.60 C 667.34 507.33, 669.27 507.70, 673.15 508.27 C 677.02 508.84, 679.13 509.00, 682.99 508.44 C 686.85 507.87, 688.95 507.26, 692.46 505.44 C 695.96 503.62, 697.77 502.50, 700.53 499.34 C 703.28 496.18, 704.50 494.19, 706.24 489.64 C 707.99 485.09, 708.49 482.28, 709.25 476.60 C 710.01 470.92, 710.11 467.49, 710.05 461.24 C 709.99 454.98, 709.70 451.51, 708.97 445.32 C 708.23 439.13, 707.52 435.89, 706.39 430.30 C 705.27 424.72, 704.48 421.87, 703.35 417.40 C 702.22 412.92, 702.09 410.61, 700.74 407.92 C 699.38 405.23, 698.06 404.34, 696.56 403.97 C 695.05 403.59, 693.74 404.09, 693.21 406.03 C 692.68 407.98, 693.08 409.65, 693.90 413.68 C 694.73 417.70, 695.65 420.45, 697.33 426.15 C 699.00 431.85, 700.08 435.52, 702.30 442.18 C 704.52 448.85, 705.89 452.85, 708.45 459.47 C 711.00 466.10, 712.31 469.44, 715.06 475.29 C 717.81 481.13, 719.41 483.98, 722.19 488.70 C 724.97 493.42, 726.36 495.57, 728.96 498.90 C 731.56 502.23, 732.52 503.67, 735.16 505.33 C 737.81 507.00, 739.41 507.34, 742.20 507.23 C 744.99 507.12, 746.68 506.55, 749.11 504.79 C 751.54 503.03, 752.35 501.41, 754.35 498.43 C 756.36 495.46, 757.13 493.28, 759.15 489.91 C 761.18 486.54, 762.27 484.45, 764.47 481.58 C 766.66 478.71, 768.10 477.26, 770.12 475.57 C 772.13 473.88, 772.88 473.24, 774.54 473.14 C 776.20 473.03, 776.55 473.66, 778.42 475.03 C 780.28 476.41, 781.55 477.55, 783.87 480.01 C 786.18 482.46, 787.32 484.22, 789.98 487.32 C 792.65 490.41, 794.08 492.27, 797.18 495.48 C 800.28 498.69, 802.13 500.49, 805.50 503.36 C 808.87 506.23, 810.64 507.54, 814.04 509.82 C 817.44 512.09, 819.40 513.25, 822.51 514.74 C 825.62 516.23, 827.12 516.77, 829.60 517.26 C 832.08 517.75, 833.71 517.67, 834.90 517.18 C 836.10 516.68, 836.28 515.81, 835.57 514.79 C 834.87 513.76, 833.49 513.13, 831.37 512.05 C 829.26 510.98, 827.91 510.73, 825.00 509.41 C 822.09 508.09, 820.09 507.40, 816.83 505.44 C 813.57 503.48, 811.88 502.28, 808.69 499.59 C 805.50 496.91, 803.75 495.17, 800.86 492.01 C 797.98 488.86, 796.76 487.05, 794.27 483.82 C 791.78 480.60, 790.90 478.72, 788.41 475.88 C 785.92 473.05, 784.68 471.27, 781.83 469.65 C 778.98 468.03, 777.26 467.57, 774.17 467.79 C 771.09 468.00, 769.30 468.68, 766.42 470.72 C 763.54 472.76, 762.27 474.78, 759.78 477.97 C 757.30 481.16, 756.19 483.34, 754.01 486.69 C 751.83 490.05, 750.68 492.08, 748.89 494.75 C 747.09 497.42, 746.45 498.51, 745.05 500.03 C 743.65 501.54, 743.28 502.15, 741.87 502.33 C 740.46 502.50, 739.92 502.13, 738.01 500.89 C 736.10 499.64, 734.87 498.90, 732.32 496.08 C 729.77 493.27, 728.12 491.25, 725.25 486.81 C 722.38 482.37, 720.73 479.60, 717.96 473.90 C 715.19 468.21, 713.88 464.90, 711.42 458.34 C 708.96 451.79, 707.60 447.79, 705.65 441.13 C 703.71 434.48, 702.89 430.79, 701.69 425.06 C 700.49 419.32, 700.51 416.37, 699.66 412.46 C 698.82 408.55, 698.39 406.94, 697.45 405.51 C 696.50 404.08, 695.34 404.41, 694.93 405.34 C 694.52 406.26, 694.54 407.47, 695.39 410.13 C 696.24 412.79, 697.71 414.46, 699.19 418.65 C 700.67 422.84, 701.52 425.67, 702.78 431.08 C 704.03 436.50, 704.74 439.70, 705.46 445.74 C 706.18 451.77, 706.42 455.19, 706.38 461.25 C 706.35 467.30, 706.15 470.67, 705.29 476.01 C 704.43 481.36, 703.78 483.97, 702.09 487.97 C 700.39 491.96, 699.23 493.44, 696.82 495.97 C 694.40 498.49, 692.95 499.19, 690.02 500.60 C 687.10 502.01, 685.41 502.55, 682.19 503.03 C 678.97 503.51, 677.15 503.47, 673.91 503.00 C 670.67 502.54, 669.04 502.26, 666.00 500.70 C 662.97 499.14, 661.27 497.90, 658.72 495.19 C 656.16 492.47, 655.09 490.04, 653.25 487.11 C 651.40 484.17, 651.10 482.41, 649.48 480.53 C 647.85 478.64, 646.74 477.95, 645.13 477.66 C 643.52 477.37, 642.78 477.68, 641.43 479.07 C 640.07 480.46, 639.95 482.04, 638.37 484.63 C 636.79 487.23, 636.08 489.23, 633.53 492.03 C 630.97 494.84, 629.13 496.39, 625.61 498.64 C 622.08 500.89, 619.91 501.98, 615.90 503.29 C 611.89 504.59, 609.48 504.93, 605.54 505.16 C 601.59 505.40, 599.28 505.23, 596.15 504.45 C 593.03 503.67, 591.68 503.00, 589.89 501.28 C 588.11 499.55, 587.44 498.49, 587.22 495.84 C 586.99 493.18, 587.10 491.44, 588.76 487.99 C 590.42 484.53, 592.10 482.09, 595.51 478.56 C 598.92 475.03, 601.49 472.90, 605.80 470.35 C 610.11 467.79, 612.86 466.76, 617.06 465.78 C 621.25 464.81, 623.77 465.02, 626.78 465.46 C 629.79 465.91, 630.64 466.66, 632.10 468.02 C 633.55 469.38, 633.56 470.47, 634.06 472.25 C 634.55 474.03, 634.27 475.10, 634.58 476.90 C 634.90 478.70, 634.78 480.27, 635.64 481.25 C 636.50 482.23, 637.70 482.64, 638.88 481.82" style="stroke: black; fill: black;">
    
  </path>
  <path d="M 1006.30,426.65 C 1005.86 428.61, 1006.36 431.01, 1007.00 436.10 C 1007.65 441.19, 1008.08 445.18, 1009.55 452.09 C 1011.01 459.00, 1012.26 463.54, 1014.34 470.66 C 1016.41 477.78, 1017.86 481.53, 1019.93 487.68 C 1022.01 493.83, 1023.24 496.70, 1024.71 501.40 C 1026.18 506.11, 1026.59 508.17, 1027.30 511.20 C 1028.02 514.23, 1027.98 514.95, 1028.30 516.56 C 1028.62 518.17, 1028.47 518.65, 1028.91 519.24 C 1029.35 519.83, 1029.88 520.04, 1030.51 519.51 C 1031.14 518.97, 1031.74 518.44, 1032.06 516.56 C 1032.37 514.67, 1032.86 513.36, 1032.10 510.08 C 1031.33 506.80, 1030.06 504.86, 1028.24 500.17 C 1026.43 495.47, 1025.16 492.70, 1023.01 486.62 C 1020.87 480.54, 1019.51 476.80, 1017.50 469.75 C 1015.50 462.70, 1014.36 458.21, 1013.01 451.38 C 1011.65 444.54, 1011.49 440.60, 1010.73 435.58 C 1009.97 430.57, 1010.10 428.09, 1009.22 426.31 C 1008.33 424.52, 1006.75 424.69, 1006.30 426.65" style="stroke: black; fill: black;">
    
  </path>
  <path d="M 967.94,432.06 C 968.91 431.03, 968.67 429.30, 969.78 426.56 C 970.90 423.83, 970.86 421.80, 973.52 418.39 C 976.17 414.98, 977.97 412.59, 983.07 409.51 C 988.16 406.43, 991.74 404.90, 999.00 402.98 C 1006.26 401.07, 1011.19 400.43, 1019.36 399.95 C 1027.54 399.46, 1032.18 399.69, 1039.87 400.58 C 1047.57 401.46, 1051.69 402.24, 1057.84 404.38 C 1063.99 406.52, 1066.98 408.32, 1070.63 411.29 C 1074.29 414.26, 1075.22 416.03, 1076.13 419.24 C 1077.04 422.44, 1076.73 423.87, 1075.18 427.31 C 1073.63 430.75, 1072.10 432.87, 1068.40 436.45 C 1064.71 440.04, 1061.63 441.94, 1056.71 445.25 C 1051.80 448.56, 1048.41 450.29, 1043.81 453.01 C 1039.21 455.74, 1036.54 456.66, 1033.71 458.89 C 1030.87 461.11, 1029.65 462.16, 1029.61 464.13 C 1029.57 466.11, 1030.49 467.62, 1033.50 468.76 C 1036.51 469.91, 1039.23 469.38, 1044.66 469.86 C 1050.10 470.34, 1053.68 470.23, 1060.68 471.16 C 1067.68 472.08, 1072.25 472.77, 1079.66 474.48 C 1087.07 476.20, 1091.33 477.36, 1097.71 479.75 C 1104.08 482.14, 1107.16 483.60, 1111.53 486.44 C 1115.91 489.27, 1117.57 491.02, 1119.59 493.94 C 1121.62 496.86, 1121.85 498.20, 1121.66 501.05 C 1121.46 503.90, 1120.88 505.22, 1118.61 508.19 C 1116.34 511.16, 1114.55 512.87, 1110.31 515.91 C 1106.07 518.96, 1103.31 520.75, 1097.42 523.40 C 1091.53 526.05, 1087.79 527.30, 1080.85 529.16 C 1073.91 531.01, 1069.79 531.77, 1062.71 532.70 C 1055.63 533.63, 1051.96 533.84, 1045.46 533.82 C 1038.96 533.80, 1035.50 533.54, 1030.21 532.59 C 1024.93 531.65, 1022.30 530.74, 1019.06 529.07 C 1015.81 527.41, 1015.04 526.25, 1013.98 524.28 C 1012.93 522.30, 1013.48 521.00, 1013.78 519.20 C 1014.09 517.39, 1014.77 516.81, 1015.49 515.26 C 1016.21 513.72, 1017.41 512.65, 1017.37 511.48 C 1017.33 510.31, 1016.62 509.26, 1015.28 509.40 C 1013.94 509.54, 1012.11 510.34, 1010.67 512.17 C 1009.22 514.00, 1008.28 515.59, 1008.05 518.55 C 1007.82 521.51, 1007.66 524.10, 1009.50 526.96 C 1011.34 529.82, 1013.21 531.04, 1017.24 532.86 C 1021.27 534.68, 1024.01 535.24, 1029.66 536.06 C 1035.30 536.87, 1038.79 537.00, 1045.47 536.92 C 1052.16 536.84, 1055.87 536.61, 1063.10 535.66 C 1070.33 534.72, 1074.49 533.99, 1081.64 532.18 C 1088.78 530.36, 1092.61 529.19, 1098.81 526.60 C 1105.00 524.01, 1107.94 522.37, 1112.61 519.22 C 1117.28 516.08, 1119.47 514.47, 1122.17 510.88 C 1124.86 507.29, 1125.95 505.11, 1126.08 501.26 C 1126.21 497.42, 1125.36 495.20, 1122.82 491.66 C 1120.27 488.12, 1118.16 486.52, 1113.35 483.56 C 1108.54 480.60, 1105.37 479.27, 1098.78 476.85 C 1092.19 474.43, 1087.90 473.31, 1080.39 471.45 C 1072.88 469.58, 1068.27 468.76, 1061.23 467.54 C 1054.19 466.33, 1050.50 466.14, 1045.19 465.36 C 1039.88 464.58, 1037.39 463.80, 1034.68 463.63 C 1031.97 463.47, 1031.28 464.64, 1031.63 464.51 C 1031.98 464.39, 1033.56 464.59, 1036.44 463.01 C 1039.33 461.44, 1041.54 459.53, 1046.05 456.64 C 1050.55 453.75, 1053.93 452.02, 1058.96 448.56 C 1064.00 445.11, 1067.25 443.29, 1071.24 439.35 C 1075.23 435.42, 1077.21 433.14, 1078.92 428.90 C 1080.63 424.66, 1081.04 422.20, 1079.81 418.15 C 1078.57 414.10, 1076.96 411.95, 1072.75 408.64 C 1068.55 405.33, 1065.30 403.75, 1058.79 401.59 C 1052.27 399.44, 1048.10 398.75, 1040.18 397.87 C 1032.27 396.99, 1027.60 396.75, 1019.21 397.18 C 1010.83 397.61, 1005.85 398.19, 998.25 400.02 C 990.66 401.84, 986.89 403.23, 981.23 406.30 C 975.56 409.36, 973.27 411.67, 969.92 415.35 C 966.58 419.03, 965.50 421.43, 964.50 424.70 C 963.50 427.98, 964.23 430.24, 964.91 431.72 C 965.60 433.19, 966.96 433.09, 967.94 432.06" style="stroke: black; fill: black;">
    
  </path>
  <path d="M 1137.65,479.14 C 1136.89 480.20, 1136.50 481.39, 1136.68 483.92 C 1136.86 486.45, 1137.52 488.18, 1138.55 491.78 C 1139.58 495.39, 1140.53 497.92, 1141.84 501.93 C 1143.14 505.94, 1143.81 508.39, 1145.09 511.84 C 1146.38 515.29, 1146.75 517.32, 1148.27 519.18 C 1149.79 521.04, 1151.28 521.45, 1152.71 521.13 C 1154.13 520.82, 1154.99 519.85, 1155.38 517.61 C 1155.78 515.37, 1155.38 513.60, 1154.66 509.92 C 1153.94 506.24, 1152.86 503.61, 1151.80 499.20 C 1150.74 494.79, 1149.96 492.08, 1149.36 487.86 C 1148.76 483.64, 1148.58 481.40, 1148.81 478.10 C 1149.03 474.79, 1149.42 473.46, 1150.48 471.32 C 1151.54 469.17, 1152.15 468.69, 1154.12 467.37 C 1156.09 466.05, 1157.07 465.54, 1160.32 464.73 C 1163.56 463.93, 1165.77 463.68, 1170.35 463.34 C 1174.94 463.00, 1177.75 463.04, 1183.25 463.04 C 1188.75 463.05, 1191.67 463.12, 1197.86 463.37 C 1204.04 463.62, 1207.61 463.94, 1214.18 464.28 C 1220.74 464.61, 1224.18 464.70, 1230.69 465.05 C 1237.20 465.40, 1240.55 465.53, 1246.72 466.05 C 1252.89 466.56, 1256.30 466.89, 1261.55 467.61 C 1266.80 468.34, 1269.36 469.23, 1272.97 469.66 C 1276.59 470.08, 1278.19 470.16, 1279.62 469.72 C 1281.05 469.29, 1281.09 468.30, 1280.11 467.49 C 1279.14 466.68, 1277.76 465.70, 1274.72 465.69 C 1271.69 465.68, 1269.26 466.33, 1264.93 467.44 C 1260.60 468.56, 1257.87 469.40, 1253.08 471.25 C 1248.30 473.10, 1245.38 474.10, 1241.02 476.68 C 1236.66 479.26, 1234.48 480.88, 1231.29 484.15 C 1228.10 487.42, 1226.67 489.42, 1225.05 493.03 C 1223.44 496.64, 1222.83 498.76, 1223.23 502.19 C 1223.63 505.63, 1224.66 507.68, 1227.04 510.20 C 1229.42 512.73, 1231.43 513.72, 1235.13 514.83 C 1238.84 515.94, 1241.20 515.96, 1245.58 515.75 C 1249.95 515.53, 1252.45 515.11, 1257.00 513.76 C 1261.55 512.41, 1264.07 511.43, 1268.34 509.02 C 1272.61 506.61, 1274.80 504.94, 1278.37 501.72 C 1281.93 498.49, 1283.55 496.45, 1286.16 492.90 C 1288.77 489.35, 1290.32 486.98, 1291.42 483.95 C 1292.51 480.93, 1292.06 479.00, 1291.63 477.78 C 1291.20 476.56, 1289.88 476.64, 1289.28 477.85 C 1288.68 479.05, 1287.98 480.81, 1288.62 483.80 C 1289.27 486.78, 1290.49 489.13, 1292.51 492.77 C 1294.52 496.41, 1295.99 498.62, 1298.69 501.99 C 1301.39 505.36, 1302.96 506.95, 1305.99 509.63 C 1309.03 512.30, 1310.66 513.51, 1313.87 515.37 C 1317.07 517.23, 1318.78 518.02, 1322.04 518.93 C 1325.29 519.84, 1326.95 520.16, 1330.15 519.90 C 1333.35 519.64, 1335.10 519.24, 1338.03 517.63 C 1340.96 516.02, 1342.30 514.73, 1344.80 511.84 C 1347.29 508.96, 1348.37 507.02, 1350.50 503.21 C 1352.62 499.40, 1353.88 496.59, 1355.42 492.80 C 1356.96 489.02, 1357.89 486.75, 1358.18 484.31 C 1358.47 481.86, 1357.48 480.98, 1356.87 480.59 C 1356.26 480.20, 1355.48 480.77, 1355.12 482.36 C 1354.77 483.95, 1354.12 485.87, 1355.08 488.53 C 1356.05 491.20, 1357.32 493.30, 1359.93 495.69 C 1362.54 498.07, 1364.62 499.07, 1368.12 500.47 C 1371.62 501.86, 1373.55 502.37, 1377.44 502.66 C 1381.33 502.96, 1383.48 502.72, 1387.58 501.94 C 1391.67 501.17, 1393.84 500.48, 1397.92 498.79 C 1402.01 497.09, 1404.11 495.88, 1408.01 493.47 C 1411.92 491.06, 1413.91 489.53, 1417.46 486.76 C 1421.00 483.98, 1422.94 482.32, 1425.74 479.61 C 1428.54 476.90, 1430.22 475.15, 1431.46 473.21 C 1432.70 471.27, 1432.15 469.83, 1431.94 469.91 C 1431.73 469.99, 1430.55 470.90, 1430.39 473.60 C 1430.23 476.29, 1430.67 478.47, 1431.13 483.39 C 1431.58 488.32, 1431.82 491.72, 1432.67 498.22 C 1433.53 504.72, 1434.17 508.83, 1435.41 515.88 C 1436.65 522.94, 1437.55 526.73, 1438.87 533.49 C 1440.19 540.26, 1441.04 543.55, 1442.02 549.72 C 1442.99 555.89, 1443.52 559.01, 1443.75 564.33 C 1443.97 569.65, 1443.92 572.27, 1443.14 576.32 C 1442.36 580.38, 1441.78 581.88, 1439.84 584.61 C 1437.90 587.34, 1436.75 588.30, 1433.43 589.97 C 1430.11 591.64, 1427.94 592.34, 1423.23 592.97 C 1418.51 593.59, 1415.56 593.61, 1409.85 593.09 C 1404.13 592.57, 1400.76 591.93, 1394.66 590.36 C 1388.55 588.78, 1385.06 587.64, 1379.33 585.21 C 1373.60 582.79, 1370.45 581.25, 1366.00 578.22 C 1361.55 575.19, 1359.65 573.52, 1357.08 570.06 C 1354.50 566.60, 1353.54 564.68, 1353.12 560.93 C 1352.70 557.17, 1353.10 555.28, 1354.98 551.28 C 1356.86 547.29, 1358.33 545.05, 1362.51 540.95 C 1366.68 536.86, 1369.62 534.54, 1375.85 530.82 C 1382.09 527.09, 1386.02 525.32, 1393.68 522.33 C 1401.34 519.34, 1405.80 517.93, 1414.17 515.85 C 1422.55 513.78, 1427.22 513.05, 1435.55 511.93 C 1443.89 510.82, 1448.34 510.63, 1455.84 510.30 C 1463.33 509.96, 1466.90 509.99, 1473.03 510.26 C 1479.15 510.53, 1481.83 511.07, 1486.46 511.66 C 1491.10 512.25, 1493.17 512.92, 1496.21 513.22 C 1499.26 513.52, 1500.53 513.57, 1501.71 513.16 C 1502.89 512.75, 1503.08 512.01, 1502.12 511.16 C 1501.15 510.30, 1499.95 509.55, 1496.89 508.90 C 1493.83 508.24, 1491.59 508.22, 1486.84 507.89 C 1482.08 507.55, 1479.34 507.27, 1473.11 507.21 C 1466.88 507.16, 1463.28 507.18, 1455.70 507.63 C 1448.12 508.08, 1443.64 508.29, 1435.22 509.45 C 1426.79 510.61, 1422.07 511.35, 1413.57 513.42 C 1405.07 515.49, 1400.57 516.86, 1392.71 519.81 C 1384.86 522.76, 1380.84 524.46, 1374.31 528.18 C 1367.79 531.90, 1364.66 534.14, 1360.09 538.43 C 1355.52 542.71, 1353.65 545.03, 1351.46 549.62 C 1349.27 554.21, 1348.64 556.82, 1349.15 561.37 C 1349.66 565.92, 1351.05 568.39, 1354.02 572.35 C 1356.99 576.31, 1359.21 577.97, 1364.01 581.17 C 1368.80 584.37, 1372.05 585.86, 1378.00 588.37 C 1383.95 590.88, 1387.47 592.03, 1393.77 593.73 C 1400.06 595.43, 1403.46 596.18, 1409.46 596.87 C 1415.45 597.55, 1418.54 597.73, 1423.74 597.15 C 1428.93 596.57, 1431.51 595.95, 1435.44 593.94 C 1439.38 591.94, 1441.09 590.50, 1443.42 587.11 C 1445.75 583.73, 1446.32 581.63, 1447.09 577.04 C 1447.86 572.44, 1447.67 569.70, 1447.28 564.14 C 1446.90 558.57, 1446.23 555.45, 1445.16 549.20 C 1444.09 542.95, 1443.21 539.68, 1441.91 532.91 C 1440.61 526.14, 1439.73 522.37, 1438.66 515.35 C 1437.59 508.33, 1437.07 504.25, 1436.56 497.81 C 1436.05 491.37, 1436.14 488.10, 1436.12 483.15 C 1436.10 478.21, 1437.10 476.14, 1436.47 473.11 C 1435.85 470.07, 1434.81 468.77, 1432.99 467.98 C 1431.18 467.18, 1429.65 467.60, 1427.40 469.14 C 1425.15 470.68, 1424.36 472.91, 1421.76 475.67 C 1419.15 478.44, 1417.63 480.21, 1414.37 482.95 C 1411.12 485.69, 1409.16 487.12, 1405.49 489.36 C 1401.83 491.59, 1399.81 492.66, 1396.05 494.12 C 1392.29 495.59, 1390.27 496.11, 1386.67 496.66 C 1383.06 497.21, 1381.19 497.30, 1378.03 496.88 C 1374.87 496.45, 1373.32 495.90, 1370.87 494.54 C 1368.42 493.17, 1367.35 492.00, 1365.76 490.05 C 1364.18 488.10, 1364.16 486.67, 1362.94 484.77 C 1361.71 482.87, 1361.07 481.66, 1359.64 480.56 C 1358.21 479.46, 1357.28 478.91, 1355.78 479.27 C 1354.27 479.62, 1353.32 480.08, 1352.10 482.34 C 1350.87 484.61, 1350.97 486.95, 1349.65 490.58 C 1348.32 494.20, 1347.34 496.99, 1345.48 500.46 C 1343.62 503.92, 1342.44 505.59, 1340.34 507.90 C 1338.24 510.21, 1337.13 510.88, 1334.99 512.01 C 1332.85 513.14, 1331.90 513.37, 1329.62 513.57 C 1327.34 513.76, 1326.19 513.62, 1323.59 512.99 C 1320.99 512.36, 1319.41 511.91, 1316.61 510.43 C 1313.80 508.95, 1312.22 507.96, 1309.56 505.60 C 1306.89 503.23, 1305.42 501.78, 1303.28 498.60 C 1301.13 495.42, 1300.26 493.18, 1298.84 489.71 C 1297.41 486.23, 1297.42 483.85, 1296.14 481.21 C 1294.85 478.58, 1293.90 477.48, 1292.40 476.53 C 1290.89 475.59, 1289.99 475.49, 1288.61 476.47 C 1287.23 477.46, 1286.82 478.73, 1285.49 481.46 C 1284.17 484.18, 1284.03 486.72, 1281.98 490.10 C 1279.94 493.48, 1278.45 495.38, 1275.28 498.36 C 1272.10 501.35, 1270.03 502.87, 1266.11 505.01 C 1262.20 507.15, 1259.83 507.99, 1255.69 509.06 C 1251.55 510.13, 1249.18 510.34, 1245.41 510.37 C 1241.64 510.40, 1239.65 510.09, 1236.83 509.22 C 1234.02 508.35, 1232.92 507.57, 1231.34 506.02 C 1229.75 504.47, 1229.21 503.67, 1228.90 501.48 C 1228.59 499.28, 1228.63 497.88, 1229.78 495.06 C 1230.93 492.24, 1231.96 490.27, 1234.67 487.37 C 1237.37 484.48, 1239.29 482.88, 1243.29 480.59 C 1247.30 478.29, 1250.13 477.31, 1254.70 475.91 C 1259.28 474.50, 1261.98 474.15, 1266.16 473.56 C 1270.33 472.97, 1272.65 473.67, 1275.57 472.97 C 1278.49 472.26, 1279.81 471.36, 1280.77 470.06 C 1281.73 468.75, 1281.79 467.53, 1280.36 466.45 C 1278.93 465.37, 1277.31 465.18, 1273.63 464.65 C 1269.94 464.12, 1267.28 464.18, 1261.95 463.79 C 1256.62 463.40, 1253.18 463.09, 1246.96 462.70 C 1240.75 462.31, 1237.39 462.17, 1230.87 461.83 C 1224.35 461.48, 1220.93 461.38, 1214.36 460.97 C 1207.80 460.57, 1204.25 460.21, 1198.04 459.81 C 1191.84 459.41, 1188.93 459.23, 1183.35 458.98 C 1177.77 458.73, 1174.99 458.47, 1170.14 458.56 C 1165.29 458.64, 1162.97 458.59, 1159.11 459.39 C 1155.25 460.19, 1153.59 460.67, 1150.84 462.56 C 1148.10 464.45, 1146.84 465.80, 1145.38 468.84 C 1143.92 471.88, 1143.77 473.82, 1143.54 477.76 C 1143.30 481.69, 1143.69 483.99, 1144.19 488.51 C 1144.70 493.03, 1145.33 495.79, 1146.06 500.34 C 1146.78 504.90, 1147.07 507.66, 1147.81 511.29 C 1148.54 514.91, 1148.75 516.67, 1149.74 518.45 C 1150.73 520.22, 1152.00 520.50, 1152.75 520.15 C 1153.49 519.81, 1153.79 518.84, 1153.46 516.74 C 1153.13 514.65, 1152.24 513.03, 1151.10 509.69 C 1149.96 506.36, 1148.96 504.00, 1147.75 500.06 C 1146.54 496.12, 1145.99 493.50, 1145.06 489.98 C 1144.12 486.47, 1143.98 484.74, 1143.06 482.46 C 1142.14 480.19, 1141.54 479.28, 1140.46 478.61 C 1139.38 477.95, 1138.41 478.08, 1137.65 479.14" style="stroke: black; fill: black;" class="">
    
  </path>
            </g>

</svg>
